ply
format ascii 1.0
comment PCL generated
element vertex 1000
property float x
property float y
property float z
element camera 1
property float view_px
property float view_py
property float view_pz
property float x_axisx
property float x_axisy
property float x_axisz
property float y_axisx
property float y_axisy
property float y_axisz
property float z_axisx
property float z_axisy
property float z_axisz
property float focal
property float scalex
property float scaley
property float centerx
property float centery
property int viewportx
property int viewporty
property float k1
property float k2
end_header
1.16114 -0.063523598 0.696621
1.15431 0.0186822 0.907125
1.07101 -0.095351003 0.96023297
1.15485 0.039423499 0.66570598
1.17682 -0.038768101 0.68299598
1.18229 0.101207 0.78002501
1.20564 -0.053978 0.76024401
1.18891 0.038740098 0.73820603
1.18515 -0.0057832501 0.78521299
1.0524 0.122169 0.96978098
1.1907001 -0.034523599 0.85729897
1.1127501 0.059119798 0.91382802
1.08586 -0.049160201 0.98462403
1.09878 -0.046408601 0.64439899
1.12523 -0.089014903 0.90597898
1.17611 -0.046398699 0.83429098
1.1001101 0.158335 0.86768198
1.04449 -0.177927 0.72394401
1.03866 -0.028873499 0.61070502
1.19947 -0.043778099 0.88154399
1.10469 -0.11731 0.66969901
1.06451 -0.141656 0.66555101
1.09579 0.084846497 0.976982
1.1957901 -0.038554002 0.839836
1.19785 -0.024402199 0.77749503
1.16394 0.048817798 0.67606699
1.08381 0.17206199 0.83057898
1.15452 -0.150683 0.81452602
1.17923 0.0992155 0.87160099
1.1727099 -0.081599399 0.79945201
1.17207 0.104265 0.85834199
1.20126 -0.048868399 0.82221103
1.12988 -0.072291002 0.649912
1.11005 -0.173012 0.81817698
1.0842 0.13758001 0.92238998
1.10171 -0.168191 0.81166297
1.14993 0.101887 0.82186103
1.07871 0.151382 0.89477199
1.12551 -0.0506966 0.64865601
1.01007 0.191781 0.77035701
1.14527 0.085264802 0.906928
1.04848 -0.089369997 0.96556401
1.12444 0.028912701 0.93563801
1.13557 0.154716 0.84496301
1.10803 -0.091430299 0.65290099
1.03315 -0.103271 0.63034499
1.17802 0.0286182 0.80799103
1.15422 -0.057554699 0.92500198
1.09826 -0.00076663098 0.96897203
1.17448 -0.00241424 0.87830198
1.10141 0.17584901 0.84118801
1.18799 0.0049122502 0.88441801
1.1637599 -0.121045 0.762631
1.11599 -0.086699598 0.90601701
1.19617 -0.0155436 0.86726898
1.0538599 -0.166293 0.92011303
1.20365 -0.0101437 0.85523701
1.07162 0.120558 0.95285201
1.1701 -0.0584547 0.75764501
1.05063 -0.198025 0.85276198
1.11938 -0.0333873 0.94800198
1.1285501 -0.130693 0.89978701
1.01052 -0.19663499 0.77362698
1.12951 -0.033057999 0.65005702
1.09596 -0.095531799 0.93622899
1.12332 -0.0585583 0.65669399
1.17803 0.062724501 0.71699297
1.20131 -0.0087510096 0.81062198
1.0885201 -0.028777899 0.98032397
1.10546 0.168863 0.75698102
1.18839 -0.086265303 0.833808
1.18521 0.074571297 0.75335503
1.18583 0.0391564 0.77767301
1.14968 0.0075032301 0.65448999
1.19313 -0.092028499 0.78213698
1.0634 -0.14451399 0.69082201
1.06923 0.156066 0.62933099
1.13395 -0.063269198 0.941661
1.19569 0.037126001 0.81451303
0.99895501 0.048289198 0.99496502
1.18902 0.013943 0.81357002
1.15302 -0.098933801 0.73884898
1.20464 -0.00344331 0.79970503
1.14837 -0.109155 0.747877
1.0565 -0.151411 0.67262799
1.16281 0.112578 0.75207001
1.08192 -0.202351 0.78775799
1.05147 0.155064 0.87318403
1.1919399 -0.0122958 0.76473701
1.11886 -0.0039344202 0.63311398
1.0844899 -0.0041938298 0.62273198
1.1352 0.0258504 0.912884
1.16017 0.072948702 0.903552
1.15564 -0.056944601 0.92411202
1.21132 0.058439098 0.76944703
1.06546 -0.12765799 0.95011401
1.1627899 -0.089462303 0.88845003
1.05761 0.182605 0.85045201
1.07265 -0.173259 0.849886
1.00611 0.174225 0.87827498
1.17021 -0.070931897 0.86282998
1.17307 -0.0495556 0.73662198
1.19511 -0.032381501 0.87037498
1.03361 0.070930198 0.98207498
1.04344 -0.065829001 0.60653299
1.00212 -0.186763 0.86658502
1.03233 -0.10576 0.61843699
1.02799 0.113109 0.97661602
1.19013 -0.085152999 0.79322898
1.10156 -0.128795 0.671251
1.15644 0.073571101 0.88914597
1.19082 -0.029577499 0.80523598
1.17415 -0.046678901 0.79474002
1.0307 0.033254702 0.60803598
1.15987 0.130346 0.82840502
1.15671 -0.082934998 0.80461699
1.0638 -0.176165 0.68945402
1.08718 -0.12674899 0.90183502
1.15449 -0.074314602 0.71226603
1.02325 -0.0460831 0.97431099
1.1352299 0.056767501 0.675138
1.196 -0.0223442 0.83232802
1.1354899 -0.124088 0.76144898
1.01385 0.144526 0.923024
1.03534 0.0352531 0.99327803
1.1794 0.0098812599 0.86900198
1.19787 0.0057703299 0.77472103
1.10388 -0.17061099 0.80225199
1.20731 0.0038133699 0.77686399
1.06195 -0.15695301 0.89982897
1.05392 -0.181804 0.86094803
1.20251 0.0199701 0.82770902
0.99563301 -0.14960299 0.90706998
1.10639 0.148664 0.77284002
1.1262701 0.0086050304 0.92791802
1.20726 0.0047321199 0.77402502
0.99273098 -0.181128 0.71540999
1.04948 0.0060832002 0.57776803
1.1839 0.075141698 0.79571497
1.1054699 0.0163198 0.624982
1.16668 0.108006 0.82721901
1.19033 0.089850299 0.81670499
1.07294 0.133192 0.67307699
1.02255 0.19377799 0.836052
1.08895 0.16670799 0.730308
1.01491 -0.182422 0.73281097
1.012 0.097269602 0.64522702
1.02084 0.0262789 0.61210501
1.15827 0.012826 0.93957502
1.20582 0.0219908 0.754246
1.0497 0.161552 0.69121599
1.1393 0.074227601 0.941239
1.20445 0.017616 0.81851
1.1944799 0.00184733 0.78410202
1.18668 -0.0055354899 0.81393898
1.02355 0.094244502 0.97158998
1.00486 -0.172277 0.89762199
0.99736297 -0.194304 0.78478098
1.19312 -0.0048270002 0.84989703
1.12708 -0.074372403 0.91754901
1.156 -0.110172 0.77582598
1.2092201 0.00704535 0.809457
1.14026 -0.094519399 0.70501
1.20875 0.020927999 0.78530198
1.06387 0.147238 0.71434402
1.16081 -0.076083399 0.86939502
1.201 -0.0065948502 0.80505502
1.05857 0.18244 0.847009
1.19104 -0.056019001 0.815162
1.15864 0.089693598 0.87968802
1.1225899 0.142735 0.74834597
1.07436 -0.193811 0.82668501
1.18188 -0.0536751 0.762707
0.987445 -0.095493801 0.97814101
1.1833301 0.0305638 0.841977
1.17018 0.0136746 0.73059899
1.20347 0.0266119 0.75689602
1.017 -0.198333 0.786798
1.12716 -0.086127497 0.67321199
1.00071 0.075543597 0.99476802
1.10818 -0.078999802 0.646577
1.06311 -0.183972 0.75587898
1.15835 0.0918312 0.86533499
1.0736001 -0.163552 0.85406601
1.15567 -0.061142199 0.90309203
1.13235 -0.142305 0.73035097
1.01703 0.189877 0.759812
1.03939 0.172235 0.702232
1.12569 -0.162752 0.80286998
1.04459 -0.191369 0.79110599
1.1597199 -0.133315 0.81011897
1.0894001 -0.187613 0.79995698
1.13155 0.00101011 0.63810599
1.0467401 -0.133402 0.94522703
1.01021 -0.0127277 0.99901801
1.16214 -0.098439701 0.75766999
1.14121 0.138834 0.78377402
1.02467 -0.0944153 0.61567998
1.06103 -0.055451602 0.61448503
1.07839 -0.100807 0.641877
1.22341 0.0135307 0.778804
1.20066 0.056966599 0.84744102
1.19389 -0.00904324 0.748245
1.0662301 0.0184434 0.99597299
1.05294 0.188968 0.79027301
1.19076 0.041069899 0.85188401
0.99148601 0.16577201 0.947824
1.1913199 -0.00094845198 0.86358899
1.18694 -0.0511951 0.78893602
1.08009 0.0589182 0.63775301
1.03266 -0.091366 0.97382599
1.18567 -0.053955302 0.80414897
0.99513 0.158351 0.65714097
1.16404 -0.091980197 0.73211598
1.17451 -0.0033569401 0.68370199
1.15367 -0.0057367398 0.88590699
1.14926 -0.089876004 0.703839
1.14551 -0.023611501 0.918751
1.145 0.154349 0.79532099
1.0786099 -0.15073299 0.92038602
1.13876 -0.092149399 0.90338701
1.14501 -0.130079 0.76444298
1.12212 -0.017189899 0.68275899
1.1748101 -0.000161633 0.85697901
1.1967601 -0.00469174 0.80389798
1.18861 0.0091663403 0.80476499
1.12533 -0.060943101 0.65705198
1.09989 -0.13638 0.70427901
1.07901 0.18827499 0.81050903
1.15563 0.037135102 0.70796102
1.1049401 0.13317101 0.90343398
1.15363 -0.106781 0.76778197
1.17178 0.064153798 0.75483102
1.01218 0.138889 0.67088097
1.21814 -0.033655599 0.78293502
1.1415401 -0.120952 0.71298999
1.05158 0.0042606401 1.00573
1.04475 -0.207073 0.77704
1.1458 0.125744 0.83219701
1.1855299 -0.100352 0.76548499
1.00807 0.20310099 0.78409898
1.17214 -0.00140951 0.91765302
1.1935101 0.020098399 0.78914702
1.04366 0.151499 0.66870803
1.00921 -0.20418701 0.81722498
1.01566 0.070498101 0.97965801
1.16641 -0.107486 0.78730702
1.1933 -0.0660422 0.81318003
1.21399 0.016282801 0.78404999
1.0853601 -0.17291801 0.84876198
1.1457 0.147438 0.81908399
1.20936 0.0295878 0.79272401
1.19366 0.0086710602 0.80251098
1.21595 0.03153 0.82221597
1.18637 0.0135843 0.825638
1.19467 0.0295587 0.79646498
1.1006 0.172603 0.830369
1.08584 -0.191735 0.81487799
1.10463 0.16714901 0.69393599
1.07989 0.145235 0.90641999
1.05589 -0.049331699 0.591524
1.04334 0.16690101 0.72995502
1.20909 0.0228072 0.82159299
1.0194 -0.0584841 0.60368598
1.11514 0.092607901 0.92237699
1.1847399 0.066360399 0.83324897
0.99463099 -0.078224503 0.62691402
1.18783 -0.046865501 0.85901099
1.12722 0.163021 0.81363499
1.1019 0.113059 0.92358702
1.17968 -0.069149397 0.79147398
1.18428 -0.053876199 0.83428502
1.20662 0.0510142 0.82904202
1.12292 -0.033689901 0.65738499
1.02477 0.185369 0.75849801
1.1756901 0.0055059898 0.87696201
1.0998 0.0155522 0.617118
1.21473 0.0140573 0.818501
1.14838 -0.0069009499 0.65901798
1.20258 0.0296649 0.81145102
1.19347 -0.00077443401 0.77927899
1.12841 0.147903 0.72665697
1.21582 -0.00419321 0.80810702
1.0796 -0.18661401 0.81269997
1.07963 0.079015397 0.935386
1.07557 0.15635499 0.85952502
1.0153199 0.0912662 0.99800098
1.1187 -0.158392 0.75938702
1.20515 -0.0053527402 0.781129
1.13065 -0.0125302 0.916206
1.0355 0.097273603 0.63287002
1.0294501 0.184744 0.78188801
1.0314699 -0.104832 0.655168
1.1359299 0.148513 0.778534
1.1613801 0.101801 0.71515298
1.19341 -0.036901999 0.81815898
1.01095 -0.032376401 0.628663
1.12007 -0.0383939 0.937648
1.04028 -0.153533 0.89936203
1.14381 0.117902 0.82651103
1.15834 -0.065789796 0.91992003
1.13107 0.095573902 0.89497203
1.2019 -0.0110418 0.82747102
1.19707 -0.019079501 0.78922898
1.00624 0.148929 0.66679698
1.1610301 -0.046275899 0.70082903
1.15567 0.0129651 0.91683197
1.1783 -0.0127987 0.69569999
1.05372 -0.192056 0.75645697
1.1509 -0.127923 0.74798203
1.18303 -0.0202922 0.90136403
1.1143399 0.118133 0.690117
1.06089 0.15530799 0.70227498
1.0981801 0.089368701 0.946697
1.09624 -0.107235 0.93977499
1.11914 0.149307 0.73950201
1.1442699 -0.115631 0.83586502
1.11778 -0.078519799 0.67586398
1.16743 0.064615302 0.74836302
1.00281 0.16456699 0.693223
1.13783 -0.117724 0.72257799
1.15908 -0.11904 0.74704599
1.02999 -0.194693 0.75300699
1.08366 -0.041024402 0.62301099
1.10306 -0.082727298 0.91884297
1.04694 -0.160439 0.71904498
1.08599 0.162412 0.71674198
1.15195 -0.0182925 0.902637
1.04918 -0.156629 0.91969901
1.1650701 -0.0063072001 0.91785502
1.10198 -0.043380201 0.62457198
1.03503 0.144897 0.64784497
1.16312 -0.0092196697 0.92057103
1.08204 -0.026091 0.97882301
1.16099 0.11197 0.853625
1.1508501 -0.124054 0.77130002
1.18099 -0.0614338 0.78819102
1.1906101 0.0217102 0.76801801
1.07521 -0.0138357 0.98955399
1.05056 0.20120101 0.82666498
1.04968 -0.086376399 0.63291502
1.19611 -0.0216238 0.849904
1.1574 0.120429 0.83489197
1.18743 0.0095138103 0.77065998
1.09934 -0.16509999 0.87984902
1.16763 0.054404601 0.86759901
1.0870399 -0.099753797 0.93754798
1.0087399 -0.175797 0.88821298
1.01913 0.19123501 0.85129702
1.07411 -0.185554 0.73540699
1.09429 -0.136712 0.90286601
1.17278 -0.031264901 0.68634999
1.1910501 0.0535159 0.83741599
1.13715 -0.111908 0.79373699
1.03032 0.199946 0.79976797
1.07481 0.109247 0.64144999
1.1444 -0.131758 0.82779598
1.0390199 -0.055741001 0.61783201
1.08189 -0.137697 0.923567
1.01662 0.099169903 0.96756297
1.12005 -0.118927 0.68261403
1.13379 0.032965701 0.656102
1.02536 -0.137786 0.94651598
1.09832 -0.114042 0.69255698
1.13191 0.068993501 0.931907
1.18239 0.0207994 0.85779798
1.19127 -0.015877901 0.77932101
1.0460401 0.101312 0.93798101
1.04041 0.199746 0.81773102
1.1974601 -0.071102403 0.83846903
1.16529 0.100479 0.726798
1.07207 0.158595 0.87896198
1.17972 -0.0193641 0.74824899
1.15464 0.12783299 0.827721
1.0957299 -0.012774 0.97562897
1.0563101 -0.093917899 0.96289498
1.16977 -0.068985298 0.71877903
1.05539 -0.124402 0.64630699
1.07016 -0.181842 0.85339803
1.18523 0.0080926996 0.73228103
1.04331 0.180491 0.82002401
1.18543 -0.045076899 0.87355101
1.0860699 -0.146732 0.92136002
1.0893 -0.052389499 0.64490998
1.08596 -0.17596699 0.88154602
1.0179 0.113007 0.959346
1.1906199 0.0090535898 0.78760898
1.00203 -0.049593799 1.00694
1.19903 0.0147291 0.85629702
1.19192 0.041909002 0.83466899
1.05752 0.17150401 0.74302298
1.09613 -0.102415 0.67026901
1.1799099 0.0332467 0.69632399
1.20307 0.0788057 0.75929302
1.03804 0.192433 0.81551898
1.15333 0.13175701 0.78741401
1.16521 0.065787598 0.80494899
1.15581 -0.107783 0.73405898
1.0922199 -0.176323 0.79404199
1.04146 0.038922999 0.60197198
1.18309 0.042373199 0.83948898
1.15104 -0.140018 0.82789397
1.08723 0.016863801 0.61099201
1.1785001 0.0291231 0.72616601
1.0719 0.049540699 0.982831
1.18305 0.11027 0.77042001
1.1060899 0.0451013 0.960123
1.03711 0.206322 0.768619
1.0703 -0.191333 0.81665999
0.99667001 -0.151457 0.66854399
1.17686 -0.051219501 0.78783101
1.19188 0.0248935 0.770859
1.01408 -0.12465 0.946917
1.13332 -0.120507 0.72213697
1.06314 0.032213401 0.979761
1.07604 -0.048879601 0.98656201
1.18299 -0.0147371 0.736431
1.20739 0.038033899 0.75389701
1.16649 -0.070161901 0.72014099
1.05819 0.200844 0.83477998
1.19006 0.034698199 0.76868403
1.2044801 -0.00977368 0.79069299
1.13334 0.040013898 0.64443803
1.0007 -0.209841 0.83944398
1.18589 -0.0100543 0.72726399
1.20666 0.020891 0.80044502
1.0657901 0.0041834102 0.60910702
1.17425 0.077061802 0.77649301
1.11176 -0.14708801 0.79920101
1.09856 0.16792201 0.85083097
1.0458601 0.191495 0.83601701
1.1100301 -0.055255901 0.63120902
1.13304 0.136792 0.73240799
1.0858901 0.145381 0.72343302
1.2017 -0.0115914 0.80312997
1.12468 -0.038175002 0.66881597
1.07472 0.154972 0.678819
1.2086999 -0.0127703 0.79513299
1.13994 -0.118698 0.76403803
1.18257 -0.095618904 0.76677299
1.20542 0.0152277 0.78485203
1.01843 -0.087597199 0.63764101
1.03058 0.11787 0.65646303
1.17032 -0.107814 0.81616902
0.99302799 0.122392 0.96503401
1.19743 -0.046885099 0.75615603
1.03369 0.180317 0.87756097
1.19068 -0.079089999 0.85189301
1.0704 0.18716399 0.87472498
1.07974 -0.0047873398 0.99185598
1.05533 0.123023 0.961528
1.21378 0.00057844003 0.808231
1.0605201 -0.075754903 0.966564
1.11947 -0.053895399 0.95019299
1.1770101 -0.089550897 0.863433
1.20629 -0.021937899 0.80955899
1.05353 -0.182621 0.79922903
1.13015 0.15542001 0.75086999
1.1451499 0.0359517 0.65211099
1.1869299 -0.0300931 0.720397
1.16389 -0.031748299 0.686499
1.00965 -0.20528001 0.79261798
1.1725301 0.109001 0.81534499
1.13449 0.104013 0.885472
1.13116 -0.16437601 0.870184
1.13844 -0.109509 0.71348399
1.18818 0.0452343 0.74679899
1.13208 -0.104523 0.90880299
1.17818 0.043191899 0.70544899
1.20403 0.0114154 0.81336898
1.17075 -0.034108501 0.72904497
1.02242 -0.151226 0.66723597
1.11935 0.155022 0.88842601
1.13462 -0.127589 0.78103697
1.1540101 -0.090544403 0.90520602
1.20715 -0.022104301 0.76758403
1.02355 -0.0478574 0.60754502
1.03759 -0.152007 0.68523598
1.16625 0.082959503 0.73742598
1.1392699 0.140641 0.84018201
1.17959 -0.114845 0.81880897
1.12366 -0.049569499 0.63462001
1.11926 0.16316199 0.72058803
1.1966799 0.030135101 0.81007099
1.0992399 0.189652 0.80696201
1.1514601 0.126976 0.81157601
1.20154 -0.028679101 0.77654397
1.11831 0.151492 0.790883
1.12807 0.095257603 0.92922097
0.99415201 0.0200173 0.59881997
1.1507 -0.117763 0.81585002
1.10201 -0.097296298 0.64916402
1.19804 0.072569199 0.79827702
1.20026 0.0183734 0.728504
1.12959 0.068745501 0.92061698
1.12423 0.13596 0.732741
1.14249 -0.138693 0.87262797
1.03444 -0.205074 0.764377
1.08928 0.046657499 0.62779498
1.05019 -0.0662596 0.97878897
1.1652 0.092335097 0.88358903
1.10632 -0.18749399 0.820014
1.10001 -0.130032 0.70708001
1.17361 -0.0958983 0.78585899
1.15131 0.111802 0.87421399
1.2005301 0.0542721 0.83440202
1.15344 0.095807098 0.90230501
1.15516 -0.052207399 0.69718802
1.13363 0.058963601 0.92591798
1.1324199 0.147357 0.70980603
1.15719 0.031729601 0.67364401
1.08728 0.019710399 0.62632698
1.16637 -0.053684801 0.73124403
1.11552 -0.15266199 0.76335901
1.14416 -0.112171 0.78030097
1.14342 -0.077628002 0.90262902
1.08345 -0.122584 0.92446399
1.14597 0.100278 0.88368201
1.1973 0.078300901 0.80710799
1.0174201 -0.102075 0.96641499
1.18546 -0.067683801 0.80442202
1.14087 -0.0744486 0.704198
1.15921 0.0176898 0.91230297
1.0479701 0.134342 0.64219302
1.03617 -0.057427801 0.977889
1.03093 0.087555498 0.96359497
1.19191 -0.034869298 0.782206
1.07769 0.111278 0.963705
1.05963 -0.087770097 0.976556
1.07348 -0.147662 0.71811199
1.17105 0.063740902 0.72959
1.1508 0.092704497 0.83789599
1.1102901 -0.086392 0.649297
1.17422 -0.076882899 0.82043803
1.14329 -0.0925951 0.67693698
1.03254 -0.053576302 0.97678298
1.02913 0.101067 0.6207
1.1580499 0.112147 0.80264097
1.20399 0.0046933298 0.79541898
1.19875 0.021705 0.76250702
1.05498 -0.126913 0.92821097
1.18793 0.020396899 0.79921198
1.2053601 -0.0053570499 0.79958302
1.05379 -0.038424399 0.98366803
1.06596 0.082869098 0.61827397
1.01244 -0.18996599 0.83074701
1.07848 -0.18744101 0.760373
1.06801 -0.18607201 0.854743
1.05062 0.018846501 0.61128598
1.1926399 -0.0150577 0.80063599
1.19171 -0.035567399 0.77625197
1.16034 -0.038475499 0.88885301
1.19407 -0.052884798 0.79443502
1.17002 0.0496496 0.68820202
1.0762 -0.0144307 1.00165
1.1293 0.074991897 0.68095303
1.00994 0.137637 0.64984298
1.02642 0.13579001 0.92215699
1.1796499 -0.0168272 0.80848002
1.1019 -0.12957001 0.69969499
1.10553 -0.0039234902 0.628672
1.15215 -0.040801201 0.92541403
1.1030999 0.127361 0.65751803
1.12722 -0.14958 0.866014
1.19991 -0.00781391 0.81601799
1.13509 0.112713 0.7281
1.1522 -0.11555 0.76817799
1.13483 -0.0281519 0.64694601
1.12471 -0.12382 0.73189801
1.08026 -0.073039003 0.96221697
1.20293 0.0094387196 0.80594999
1.04553 -0.123699 0.68447399
1.14755 0.0471045 0.66953301
1.1971999 -0.0111084 0.82267201
1.17592 -0.0248594 0.85525
1.13433 0.109499 0.69027299
1.19616 0.00084512198 0.81667
1.03415 -0.103095 0.636024
1.19401 -0.034024701 0.71870202
1.17979 0.0126487 0.850182
1.14051 0.150401 0.74531299
1.14634 0.128042 0.875503
1.07534 -0.111854 0.64443898
1.0552 -0.154773 0.679214
1.04563 0.14594001 0.68102801
1.0872101 0.16529299 0.88771498
1.17452 -0.090273 0.76075602
1.15319 -0.13153 0.82613498
1.15759 -0.064583696 0.91982198
1.1560301 -0.13901 0.75117499
1.15464 -0.099095799 0.89292598
1.12514 0.031989101 0.95974201
1.10035 0.182896 0.74922901
1.11744 0.147747 0.86350602
1.2023 -0.046724699 0.82603598
1.16114 0.109892 0.78157502
1.12845 -0.061425399 0.97312599
1.00679 0.13126899 0.953659
1.11887 0.053705201 0.950508
1.19069 0.061475102 0.82658798
1.18142 -0.0114042 0.71999699
1.1839 0.0196665 0.82934099
1.1217901 0.103116 0.92706198
1.1914099 0.0180033 0.73780203
1.12527 -0.146946 0.71673
1.0538 -0.14582001 0.92824799
1.05331 -0.153842 0.68723899
1.16088 -0.096852101 0.72691703
1.14205 0.112944 0.69840503
1.19461 -0.0043803798 0.73913598
1.18327 0.022268699 0.76330799
1.1643 0.052016299 0.70927
1.19051 0.024847601 0.757752
1.1928999 0.065544099 0.824911
1.03565 0.151656 0.67098302
0.99491 0.136922 0.955046
1.1814801 0.048339199 0.83965302
1.08199 0.177577 0.77648699
1.0774 0.00454744 0.596129
1.1597199 0.079369903 0.90517002
1.20796 0.0089610796 0.79107702
0.98928499 -0.099065602 0.97929698
1.14235 0.0152826 0.66473597
1.2221299 -0.00066775101 0.81579602
1.09097 0.026939301 0.96375102
1.15293 -0.079572901 0.933909
1.14776 0.150185 0.73179299
1.14846 0.0222228 0.92628503
1.0221601 0.13831 0.92588401
1.16715 -0.036015801 0.73019397
1.10296 0.16526701 0.73400301
1.19876 0.029498 0.80736202
1.07953 -0.0240996 0.98285401
1.13122 0.081854999 0.67751199
1.0642101 -0.123567 0.66729599
1.0779099 0.129558 0.92897099
1.01083 0.16358 0.68229401
1.13015 0.0346995 0.63898998
0.999915 -0.18342701 0.899876
1.19798 0.059039399 0.77571499
1.11647 -0.148384 0.746126
1.10546 0.0092405397 0.97693801
1.04487 -0.184643 0.74704403
1.12516 -0.110149 0.74049002
1.13528 0.075460702 0.92547399
1.18867 0.0353061 0.82915503
1.12807 -0.032747399 0.94192702
1.12368 0.0218776 0.64717603
1.02457 0.153212 0.94670498
1.00137 0.17982499 0.87476498
1.15175 -0.0258044 0.661466
1.14832 0.052643601 0.72684097
1.1515599 0.060331099 0.723378
1.1671 -0.073671602 0.71205002
1.1768399 0.0094230799 0.78666902
1.15069 0.081844799 0.67855197
1.19063 -0.00351839 0.81077302
1.0421799 -0.18653101 0.79094702
1.04871 0.00841079 0.606848
1.13676 -0.141596 0.77186
1.19383 -0.00390581 0.74496502
1.1787601 0.058438301 0.89532
0.992154 -0.12969799 0.65216398
1.11985 0.115054 0.671996
1.18977 0.073098101 0.80952299
1.17974 0.00362625 0.71900702
1.19918 -0.0127317 0.80934799
1.04561 -0.13451201 0.90983599
1.1522501 0.112314 0.83572
1.08033 0.18968301 0.76203901
1.14757 -0.099982202 0.69553399
1.15826 0.063321799 0.75747102
1.16722 -0.0369808 0.858567
1.1861399 -0.062803 0.72794402
1.05646 0.091441497 0.62076902
1.12178 4.6197099e-05 0.97807699
1.02632 -0.122692 0.94194198
1.1169 -0.133085 0.71019
1.22054 0.028008999 0.76026303
0.99092799 -0.177296 0.91624898
1.1620899 0.0032053399 0.67587602
1.17361 -0.0656351 0.83717197
1.07926 -0.179074 0.83123797
1.1144 0.089863099 0.942729
1.05006 -0.035434499 0.60570103
1.1447999 0.0775536 0.94519901
0.99519598 0.035955399 0.62040299
1.18764 -0.0065364698 0.80813998
1.08602 0.094911203 0.95393699
1.04102 0.13368 0.66162801
1.17263 -0.089653999 0.819763
1.1657 -0.074851602 0.86469603
1.19393 0.00027684099 0.79701
1.0703599 -0.122361 0.66475898
1.1866699 -0.022927299 0.82828897
1.01412 -0.0519085 0.61107999
1.21287 -0.0078860195 0.76083302
1.13695 0.16167399 0.798338
1.06793 -0.090135299 0.99113899
1.01556 -0.132116 0.94092798
1.13194 -0.136502 0.74475402
1.18642 -0.0201483 0.87970299
1.09937 -0.171241 0.85769099
1.11237 0.0153463 0.96954501
1.1959 -0.0255598 0.78343701
1.01582 -0.192872 0.85527802
1.15654 -0.033928301 0.93930399
1.11674 0.13824201 0.89139599
1.1926 -0.090848699 0.79889202
1.21255 -0.039971799 0.793598
1.17706 -0.052722 0.77884501
1.12184 0.11864 0.72373497
1.1360101 -0.052848 0.93197
1.20707 -0.0064314301 0.76785302
1.20438 -0.032669999 0.83908701
1.20312 0.0049707899 0.74580002
1.1814801 -0.043822199 0.75281799
1.13008 -0.13144501 0.685664
1.11163 0.165749 0.864384
1.07836 -0.15242501 0.86816299
1.18019 0.016676901 0.80160499
1.10683 0.101751 0.93967003
1.20134 -0.0041588298 0.81354302
1.0802701 -0.098916702 0.65098602
1.19791 -0.058220599 0.82962102
1.16556 0.046230901 0.74425101
1.1901799 -0.0276848 0.73321497
1.17846 -0.083680801 0.75458002
1.03018 0.042822301 0.60346502
1.1570801 -0.063189998 0.74068999
1.03862 0.18067899 0.80576301
1.17266 -0.0094541302 0.67292398
1.1803499 0.0214641 0.71343899
1.17671 -0.0141926 0.679205
1.16142 -0.104823 0.74371099
1.07274 -0.034896299 0.96512598
1.1914001 0.0100415 0.79502302
1.20188 0.0061648302 0.82648301
1.04447 -0.190107 0.80252898
1.01518 0.025695 0.60843003
1.10992 0.1479 0.84585398
1.1627899 -0.119408 0.82092297
1.13392 0.0139075 0.647789
1.20534 0.042061899 0.80267102
1.20679 0.016966499 0.79592103
1.12815 0.023605799 0.674191
1.1312799 -0.0285978 0.96492797
1.13116 0.14587601 0.84910703
1.02036 -0.087880202 0.62965602
1.1019 -0.080746099 0.95897901
1.1655999 0.075257502 0.692909
1.17931 -0.0110792 0.75549501
1.15631 -0.0336193 0.659563
1.03757 -0.0258894 0.99300301
1.0086401 -0.079374701 0.61223698
1.18679 0.046219502 0.807962
1.03815 0.198734 0.805103
1.10571 0.0269242 0.941854
1.0022399 -0.143914 0.94063801
1.19713 -0.040022299 0.85066599
1.1467299 0.0045874999 0.65553498
1.16842 -0.081378601 0.77078998
1.16716 -0.031421199 0.68022799
1.20743 -0.0071305302 0.79469001
1.18878 0.0223387 0.78724003
1.17659 -0.068629801 0.85820001
1.04977 0.147819 0.684205
1.0841399 -0.166109 0.72924203
1.1573499 -0.10779 0.80939001
1.1031899 -0.0328888 0.97465098
1.07749 -0.171376 0.84645098
1.2081701 -0.0111536 0.80180001
1.08205 0.0648477 0.95927399
1.17722 -0.0045439899 0.88531798
1.01973 0.159768 0.680843
1.15757 0.13178401 0.85765302
1.12677 -0.097366199 0.67027801
1.01803 -0.20894399 0.777152
1.02196 0.050880902 0.61362398
1.06216 -0.106728 0.95831698
1.0448101 0.109663 0.63821799
1.17159 -0.0278001 0.83240998
1.15425 -0.087478101 0.79897201
1.19722 0.0439943 0.79891801
1.0558701 0.0014082399 0.61410898
1.10358 -0.15098099 0.92189503
1.19876 -0.00409777 0.76407599
1.18629 -0.066559799 0.81834799
1.13383 -0.092959203 0.69734198
1.03053 -0.151696 0.89857101
1.10505 0.157601 0.760593
1.0300699 0.13646799 0.65528101
1.07094 0.18823101 0.75631899
1.17457 0.091681696 0.73987597
0.99573302 -0.203238 0.78567201
1.03829 -0.073288403 0.983096
1.18788 -0.057382401 0.71612698
0.998384 -0.204809 0.78886902
1.01851 -0.18843099 0.73589402
1.10914 0.135415 0.76537001
1.14345 -0.049586099 0.64329398
1.11516 -0.100797 0.923078
1.02139 0.201868 0.84579599
1.12216 0.156275 0.81516403
1.1593601 0.094206497 0.74554199
1.17549 0.0136072 0.87806398
1.18715 -0.064180203 0.78868902
1.07969 -0.100474 0.94928497
1.08455 -0.186216 0.74955201
1.18257 -0.0340412 0.87992901
1.04642 0.150686 0.91547602
1.12407 -0.112104 0.688959
1.2065001 0.0250101 0.81893402
1.11508 -0.114479 0.85494202
1.18332 -0.079947203 0.79276502
1.17671 0.079288997 0.843301
1.10571 0.177771 0.824745
1.04217 0.14793301 0.67683703
1.03939 0.021731 0.60848701
1.00811 0.111092 0.63082802
1.03424 0.0089319702 0.60980302
1.18128 0.0512955 0.847206
1.02398 0.176783 0.863998
1.11035 -0.033606701 0.97540498
1.03847 -0.023042301 0.99660498
1.21161 0.00250738 0.81968999
1.17663 -0.0383434 0.68657899
1.02774 0.0206105 0.98630202
1.10408 0.0135661 0.96317703
1.16624 0.0273783 0.659648
1.09173 0.064480796 0.63761199
1.1869 0.045926198 0.84968901
1.1881599 0.0128276 0.78519201
1.0961601 0.091088802 0.94524097
1.19604 0.044348799 0.76791501
1.19735 0.038231 0.849419
1.0240901 -0.150996 0.70083702
1.1069 -0.141857 0.698318
1.07339 0.0250396 0.61339003
1.07459 -0.168257 0.85875601
1.16001 -0.078311898 0.832524
1.1815 0.0120559 0.661789
1.12422 0.122796 0.67445201
1.15054 -0.112541 0.761213
1.19198 -0.021465501 0.79203302
1.19809 -0.0096693104 0.84634602
1.1619999 -0.073560096 0.89037502
1.21942 0.0030172199 0.81072003
1.18695 0.0054293 0.73427099
1.07936 0.041336801 0.61992401
1.1472501 -0.111361 0.76133102
1.10932 -0.061361201 0.94716698
1.14239 -0.102188 0.855142
1.17905 0.031206001 0.84380698
1.14926 -0.132866 0.73146403
1.16074 0.12734 0.82033199
1.1178499 0.022872601 0.64949501
1.13995 0.14573701 0.86862302
1.15125 -0.028538501 0.90289801
1.17484 0.100912 0.80133301
1.15556 -0.103469 0.73396897
1.1472501 0.11802 0.73544198
1.18053 0.040820502 0.74567503
1.00305 0.185472 0.78287202
1.05406 -0.065555699 0.62107098
1.12172 -0.072749898 0.625139
1.14048 0.046192899 0.90364099
1.1659499 0.081239097 0.72734302
1.19156 -0.0040207598 0.76495701
1.0541 0.188546 0.80405098
1.10525 0.116338 0.66881698
1.1924 0.0311836 0.85702902
1.15105 0.133257 0.81310397
1.01999 -0.197897 0.74036902
1.18152 0.020772601 0.81263798
1.1742001 -0.053407598 0.75541103
1.13376 0.1238 0.67598999
1.10184 0.090733603 0.92630702
1.19539 -0.022593999 0.74351001
1.0414 -0.17756499 0.72471499
1.16438 0.028080899 0.67993701
1.0877301 0.105354 0.94071501
1.19142 0.023589499 0.75664902
1.18334 -0.049373198 0.81738102
1.0556 -0.090124898 0.63829601
1.20749 0.0129218 0.77363199
1.19038 0.0105221 0.797822
1.04423 -0.102111 0.61745602
1.06012 -0.117729 0.92874902
1.1966 0.050416399 0.79030198
1.08381 -0.142281 0.93051398
1.19335 0.0543117 0.80381
1.1197799 0.131892 0.894068
1.16145 -0.00204208 0.658952
1.0343601 0.18184599 0.85750598
1.12058 0.052292801 0.64565003
1.13509 -0.14140999 0.90562999
1.07354 -0.032203201 0.98448902
1.05012 -0.17587399 0.70315498
1.0262901 0.061735298 0.98146498
1.11093 0.114857 0.66995102
1.04723 0.18878999 0.77808499
1.13788 0.119943 0.73849797
1.06083 -0.173382 0.76681399
1.1393501 0.11632 0.74320799
1.17452 0.0151013 0.67556399
1.17505 -0.073688202 0.70417798
1.18361 0.0087256497 0.87748802
1.10695 -0.13227201 0.697106
1.21215 0.037919499 0.82345402
1.14297 -0.085656598 0.90116501
1.19885 0.0388151 0.78960198
1.1702501 -0.084839299 0.86865097
1.01456 0.19501901 0.83186603
1.17371 0.096452899 0.870215
1.07779 -0.14401101 0.91092902
1.1882499 -0.0149091 0.768538
1.20033 -0.0109391 0.87605101
1.20814 0.052655201 0.75374597
1.19568 -0.072317198 0.89155298
1.08689 0.0069412398 0.98970097
1.15211 -0.017150501 0.66765398
1.15299 0.0127223 0.93085498
1.19301 -0.027104201 0.80955499
1.19993 -0.064793803 0.84351099
1.0448 -0.19426601 0.86345798
1.1727 -0.033438601 0.84268397
1.0439399 -0.069235802 0.97832501
1.0209301 -0.13598999 0.66117501
1.1308399 0.0095904497 0.94905698
1.18503 0.0052680802 0.82774699
1.15148 -0.100426 0.72370201
1.1999 0.0099922596 0.82349998
1.1764899 -0.0129446 0.90467
1.04028 -0.0118232 0.591555
1.01723 0.062977903 0.612122
1.01255 0.12864099 0.94558001
1.20181 0.00076457497 0.81751299
1.1464601 0.031109801 0.69157398
1.15771 0.084707603 0.69937998
1.18152 0.035987999 0.71142697
1.1911401 0.0080688596 0.80452698
1.14539 -0.102623 0.708489
1.16943 -0.113332 0.89430201
1.19765 0.0061440798 0.802558
1.00508 0.193398 0.80881298
1.00962 -0.189055 0.73836899
0.99540502 0.095815502 0.631181
1.08192 0.15012001 0.90969503
1.14293 0.094397902 0.85094899
1.2056299 -0.020284001 0.78703701
1.0505199 -0.16321 0.72965503
1.0838 0.032904699 0.97741002
1.1621799 0.0028079201 0.92744797
1.0703599 -0.044178501 0.61470699
1.03909 -0.17428499 0.71623302
1.16317 0.084160902 0.79409999
1.20382 0.0026674999 0.805269
1.16427 0.0062441202 0.883066
1.2031699 0.034265801 0.841537
1.17117 0.0243218 0.68440402
1.11327 0.134307 0.86235201
1.12252 0.159738 0.77029902
1.20582 0.0084321396 0.77547902
1.1571701 0.152733 0.76323301
1.0395401 0.16920701 0.88076198
1.20329 0.0292046 0.77704799
1.0490299 0.053428501 0.98955399
1.01868 0.17517 0.91295898
1.0255001 0.12072 0.96977901
1.0874799 -0.046174899 0.972992
1.0400701 -0.0137759 0.59012097
1.15107 0.042818502 0.66646302
1.14038 0.0285841 0.63853598
1.18806 0.053118899 0.86185002
1.06998 0.156076 0.89534903
1.12852 0.0489765 0.66232502
1.04553 -0.121446 0.94470298
1.05591 -0.115141 0.94864202
1.08245 -0.14863101 0.702501
1.01595 0.066091798 0.97448897
1.19498 0.0025873401 0.757478
1.20119 0.020558899 0.792606
1.1773601 -0.0749612 0.75076699
1.10122 -0.158228 0.77485001
1.0625499 0.172637 0.71798003
1.17334 0.025643 0.857499
1.10115 -0.151297 0.85766
1.18337 -0.0123535 0.68231899
1.15851 0.137275 0.79696101
1.06695 0.050042901 0.98909098
1.1731 0.085426502 0.74237603
1.08894 -0.17899799 0.76526701
1.07594 -0.062729701 0.97588497
1.03863 -0.161084 0.73862302
1.08211 -0.0303364 0.97884703
1.04405 0.14323699 0.93016899
1.16503 0.054248501 0.73215401
1.08445 0.176432 0.71399099
1.18516 0.023721701 0.72910303
0 0 0 1 0 0 0 1 0 0 0 1 0 0 0 0 0 1000 1 0 0
